<svg width="32" height="32" viewBox="0 0 32 32" xmlns="http://www.w3.org/2000/svg">
  <!-- 背景透明，如需纯色背景可取消下面这行注释 -->
  <!-- <rect width="32" height="32" fill="#f0f0f0" rx="4"/> -->
  
  <!-- 头发与蝴蝶结 -->
  <path d="M16 4 C10 4, 6 10, 6 18 C6 22, 10 26, 16 26 C22 26, 26 22, 26 18 C26 10, 22 4, 16 4 Z" fill="#ffd699"/>
  <path d="M12 8 L16 6 L20 8 L16 10 Z" fill="#2d1b0e"/>
  <path d="M10 6 C12 4, 14 5, 16 6 C18 5, 20 4, 22 6 C24 8, 22 10, 20 9 C18 10, 16 9, 16 9 C16 9, 14 10, 12 9 C10 10, 8 8, 10 6 Z" fill="#2d1b0e"/>
  
  <!-- 脸 -->
  <ellipse cx="16" cy="14" rx="6" ry="5" fill="#ffe6d9"/>
  <line x1="13" y1="12" x2="13" y2="16" stroke="#2d1b0e" stroke-width="0.8"/>
  <line x1="19" y1="12" x2="19" y2="16" stroke="#2d1b0e" stroke-width="0.8"/>
  <circle cx="11" cy="15" r="1" fill="#ffb3b3" opacity="0.7"/>
  <circle cx="21" cy="15" r="1" fill="#ffb3b3" opacity="0.7"/>
  <ellipse cx="16" cy="16" rx="1" ry="0.7" fill="#ffb3b3"/>
  
  <!-- 裙子 -->
  <path d="M10 20 L16 18 L22 20 L24 26 L8 26 Z" fill="#66c2e0"/>
  <path d="M12 20 L16 19 L20 20 L20 23 L16 24 L12 23 Z" fill="#ffffff"/>
  
  <!-- 袜子（简化版） -->
  <rect x="13" y="26" width="2" height="4" fill="#2d1b0e"/>
  <rect x="13" y="27" width="2" height="1" fill="#ffffff"/>
  <rect x="17" y="26" width="2" height="4" fill="#2d1b0e"/>
  <rect x="17" y="27" width="2" height="1" fill="#ffffff"/>
</svg>
